<?xml version="1.0" encoding="UTF-8"?><svg xmlns="http://www.w3.org/2000/svg" viewBox="0 0 584.59 560.49"><defs><style>.d,.e{fill:#231f20;}.e{font-family:Futura-Medium, Futura;font-size:500px;}</style></defs><g id="a"/><g id="b"><g id="c"><g><path class="d" d="M26.02,123.78c0-34.34,12.29-63.56,36.87-87.65C87.46,12.05,117.41,0,152.73,0s65.59,12.13,90.33,36.38c24.41,24.25,36.62,54.04,36.62,89.36s-12.29,65.51-36.87,89.6c-24.74,23.93-55.1,35.89-91.06,35.89s-65.51-12.21-89.6-36.62c-24.09-24.09-36.13-54.36-36.13-90.82Zm56.15,.98c0,23.77,6.35,42.56,19.04,56.4,13.02,14,30.19,21,51.51,21s38.65-6.92,51.51-20.75c12.86-13.83,19.29-32.31,19.29-55.42s-6.43-41.58-19.29-55.42c-13.02-14-30.19-21-51.51-21s-38.01,7-51.03,21c-13.02,14-19.53,32.07-19.53,54.2Z"/><path class="d" d="M326.56,123.78c0-34.34,12.29-63.56,36.87-87.65C388,12.05,417.94,0,453.26,0s65.59,12.13,90.33,36.38c24.41,24.25,36.62,54.04,36.62,89.36s-12.29,65.51-36.87,89.6c-24.74,23.93-55.1,35.89-91.06,35.89s-65.51-12.21-89.6-36.62c-24.09-24.09-36.13-54.36-36.13-90.82Zm56.15,.98c0,23.77,6.35,42.56,19.04,56.4,13.02,14,30.19,21,51.51,21s38.65-6.92,51.51-20.75c12.86-13.83,19.29-32.31,19.29-55.42s-6.43-41.58-19.29-55.42c-13.02-14-30.19-21-51.51-21s-38.01,7-51.03,21c-13.02,14-19.53,32.07-19.53,54.2Z"/></g><rect class="d" x="327.24" y="244.62" width="55" height="132.76" rx="10" ry="10"/><text class="e" transform="translate(144.29 377.38) rotate(90)"><tspan x="0" y="0">)</tspan></text></g></g></svg>