<?xml version="1.0" encoding="UTF-8"?><svg xmlns="http://www.w3.org/2000/svg" viewBox="0 0 1550.78 503.6"><defs><style>.d{fill:#231f20;}</style></defs><g id="a"/><g id="b"><g id="c"><g><path class="d" d="M0,249.99c0-34.34,12.29-63.56,36.87-87.65,24.57-24.09,54.52-36.13,89.84-36.13s65.59,12.13,90.33,36.38c24.41,24.25,36.62,54.04,36.62,89.36s-12.29,65.51-36.87,89.6c-24.74,23.93-55.1,35.89-91.06,35.89s-65.51-12.21-89.6-36.62C12.04,316.73,0,286.46,0,249.99Zm56.15,.98c0,23.77,6.35,42.56,19.04,56.4,13.02,14,30.19,21,51.51,21s38.65-6.92,51.51-20.75c12.86-13.83,19.29-32.31,19.29-55.42s-6.43-41.58-19.29-55.42c-13.02-14-30.19-21-51.51-21s-38.01,7-51.03,21c-13.02,14-19.53,32.07-19.53,54.2Z"/><path class="d" d="M300.54,249.99c0-34.34,12.29-63.56,36.87-87.65,24.57-24.09,54.52-36.13,89.84-36.13s65.59,12.13,90.33,36.38c24.41,24.25,36.62,54.04,36.62,89.36s-12.29,65.51-36.87,89.6c-24.74,23.93-55.1,35.89-91.06,35.89s-65.51-12.21-89.6-36.62c-24.09-24.09-36.13-54.36-36.13-90.82Zm56.15,.98c0,23.77,6.35,42.56,19.04,56.4,13.02,14,30.19,21,51.51,21s38.65-6.92,51.51-20.75c12.86-13.83,19.29-32.31,19.29-55.42s-6.43-41.58-19.29-55.42c-13.02-14-30.19-21-51.51-21s-38.01,7-51.03,21c-13.02,14-19.53,32.07-19.53,54.2Z"/><path class="d" d="M612.3,132.81h54.93v21.97c10.58-11.07,19.61-18.55,27.1-22.46,7.97-4.07,17.98-6.1,30.03-6.1,26.86,0,48.1,11.72,63.72,35.16,17.25-23.44,40.61-35.16,70.07-35.16,53.55,0,80.32,32.47,80.32,97.41v146.97h-55.18V238.52c0-22.79-2.77-38.9-8.3-48.34-5.7-9.6-15.06-14.4-28.08-14.4-15.14,0-26.17,5.7-33.08,17.09-6.92,11.39-10.38,29.71-10.38,54.93v122.8h-55.18V239.25c0-42.32-12.21-63.48-36.62-63.48-15.46,0-26.73,5.78-33.81,17.33-7.08,11.56-10.62,29.79-10.62,54.69v122.8h-54.93V132.81Z"/><path class="d" d="M996.58,249.99c0-34.34,12.29-63.56,36.87-87.65,24.57-24.09,54.52-36.13,89.84-36.13s65.59,12.13,90.33,36.38c24.41,24.25,36.62,54.04,36.62,89.36s-12.29,65.51-36.87,89.6c-24.74,23.93-55.1,35.89-91.06,35.89s-65.51-12.21-89.6-36.62c-24.09-24.09-36.13-54.36-36.13-90.82Zm56.15,.98c0,23.77,6.35,42.56,19.04,56.4,13.02,14,30.19,21,51.51,21s38.65-6.92,51.51-20.75c12.86-13.83,19.29-32.31,19.29-55.42s-6.43-41.58-19.29-55.42c-13.02-14-30.19-21-51.51-21s-38.01,7-51.03,21c-13.02,14-19.53,32.07-19.53,54.2Z"/><path class="d" d="M1297.12,249.99c0-34.34,12.29-63.56,36.87-87.65,24.57-24.09,54.52-36.13,89.84-36.13s65.59,12.13,90.33,36.38c24.41,24.25,36.62,54.04,36.62,89.36s-12.29,65.51-36.87,89.6c-24.74,23.93-55.1,35.89-91.06,35.89s-65.51-12.21-89.6-36.62c-24.09-24.09-36.13-54.36-36.13-90.82Zm56.15,.98c0,23.77,6.35,42.56,19.04,56.4,13.02,14,30.19,21,51.51,21s38.65-6.92,51.51-20.75c12.86-13.83,19.29-32.31,19.29-55.42s-6.43-41.58-19.29-55.42c-13.02-14-30.19-21-51.51-21s-38.01,7-51.03,21c-13.02,14-19.53,32.07-19.53,54.2Z"/></g><rect class="d" x="301.22" y="370.84" width="55" height="132.76" rx="10" ry="10"/><rect class="d" x="1494.76" width="55" height="132.76" rx="10" ry="10"/></g></g></svg>